<svg xmlns="http://www.w3.org/2000/svg" xmlns:xlink="http://www.w3.org/1999/xlink" width="14px" height="14px" viewBox="0 0 14 14" version="1.1">
    <title>垃圾桶</title>
    <g id="页面-1" stroke="none" stroke-width="1" fill="none" fill-rule="evenodd">
        <g id="反馈弹窗" transform="translate(-303.000000, -730.000000)">
            <g id="编组-10备份" transform="translate(70.000000, 639.000000)">
                <g id="垃圾桶" transform="translate(233.000000, 91.000000)">
                    <path d="M12.25,2.91666667 L9.91666667,2.91666667 L9.91666667,1.16666667 C9.91666667,0.844500563 9.65549944,0.583333333 9.33333333,0.583333333 L4.66666667,0.583333333 C4.34450056,0.583333333 4.08333333,0.844500563 4.08333333,1.16666667 L4.08333333,2.91666667 L1.75,2.91666667 C1.4278339,2.91666667 1.16666667,3.1778339 1.16666667,3.5 C1.16666667,3.8221661 1.4278339,4.08333333 1.75,4.08333333 L2.33333333,4.08333333 L2.33333333,11.6848958 C2.33443836,12.6509361 3.11729311,13.4337908 4.08333333,13.4348958 L9.91666667,13.4348958 C10.8827069,13.4337908 11.6655616,12.6509361 11.6666667,11.6848958 L11.6666667,4.08333333 L12.25,4.08333333 C12.5721661,4.08333333 12.8333333,3.8221661 12.8333333,3.5 C12.8333333,3.1778339 12.5721661,2.91666667 12.25,2.91666667 L12.25,2.91666667 Z M5.25,1.75 L8.75,1.75 L8.75,2.8984375 L5.25,2.8984375 L5.25,1.75 Z M10.5,11.6848958 C10.5,12.0070619 10.2388328,12.2682292 9.91666667,12.2682292 L4.08333333,12.2682292 C3.76116723,12.2682292 3.5,12.0070619 3.5,11.6848958 L3.5,4.08333333 L10.5,4.08333333 L10.5,11.6848958 Z M5.25,10.5 L5.25,6.41666667 C5.25,6.09450056 5.51116723,5.83333333 5.83333333,5.83333333 C6.15549944,5.83333333 6.41666667,6.09450056 6.41666667,6.41666667 L6.41666667,10.5 C6.41666667,10.8221661 6.15549944,11.0833333 5.83333333,11.0833333 C5.51116723,11.0833333 5.25,10.8221661 5.25,10.5 Z M7.58333333,10.5 L7.58333333,6.41666667 C7.58333333,6.09450056 7.84450056,5.83333333 8.16666667,5.83333333 C8.48883277,5.83333333 8.75,6.09450056 8.75,6.41666667 L8.75,10.5 C8.75,10.8221661 8.48883277,11.0833333 8.16666667,11.0833333 C7.84450056,11.0833333 7.58333333,10.8221661 7.58333333,10.5 Z" id="形状" fill="#FFFFFF" fill-rule="nonzero"/>
                    <rect id="矩形" fill="#999999" opacity="0" x="0" y="0" width="14" height="14"/>
                </g>
            </g>
        </g>
    </g>
</svg>