<svg xmlns="http://www.w3.org/2000/svg" xmlns:xlink="http://www.w3.org/1999/xlink" width="16px" height="16px" viewBox="0 0 16 16" version="1.1">
    <title>help-service备份</title>
    <g id="页面-1" stroke="none" stroke-width="1" fill="none" fill-rule="evenodd">
        <g id="新功能介绍" transform="translate(-1412.000000, -530.000000)" fill-rule="nonzero">
            <g id="help-service备份" transform="translate(1412.000000, 530.000000)">
                <path d="M13.3333333,5.33333333 C13.1062139,5.33315168 12.8807379,5.37183489 12.6666666,5.44770833 L12.6666666,5.33333333 C12.6666666,2.75600453 10.5773288,0.666666736 8,0.666666736 C5.42267119,0.666666736 3.33333337,2.75600453 3.33333333,5.33333333 L3.33333333,5.44770833 C2.72119495,5.23128473 2.04209005,5.32547766 1.5119633,5.70033525 C0.981836559,6.07519284 0.666666562,6.68406253 0.666666562,7.33333333 L0.666666562,9.33333333 C0.666455033,9.98855003 0.987194819,10.6023183 1.52522142,10.9762652 C2.06324802,11.3502122 2.75032095,11.4369085 3.364375,11.2083333 C3.63967535,13.5600689 5.63220556,15.3331172 8,15.3333333 C8.70160096,15.3331677 9.28304305,14.7893128 9.33002575,14.0892867 C9.37700844,13.3892606 8.87345606,12.7725855 8.17816962,12.6786669 C7.48288317,12.5847484 6.83376317,13.0457216 6.69333333,13.733125 C5.50291667,13.2239583 4.66666656,12.0416667 4.66666656,10.6666667 L4.66666656,5.33333333 C4.66666656,3.49541667 6.16208333,2 8,2 C9.83791667,2 11.3333333,3.49541667 11.3333333,5.33333333 L11.3333333,9.33333333 C11.3333333,10.4379028 12.2287638,11.3333333 13.3333333,11.3333333 C14.4379028,11.3333333 15.3333333,10.4379028 15.3333333,9.33333333 L15.3333333,7.33333333 C15.3320704,6.22928736 14.4373793,5.33459622 13.3333333,5.33333333 Z M2.66666667,10 C2.29847683,10 2,9.70152317 2,9.33333333 L2,7.33333333 C2,6.9651435 2.29847683,6.66666667 2.66666667,6.66666667 C3.0348565,6.66666667 3.33333333,6.9651435 3.33333333,7.33333333 L3.33333333,9.33333333 C3.33333333,9.70152317 3.0348565,10 2.66666667,10 Z M14,9.33333333 C14,9.70152317 13.7015232,10 13.3333333,10 C12.9651435,10 12.6666667,9.70152317 12.6666667,9.33333333 L12.6666667,7.33333333 C12.6666667,6.9651435 12.9651435,6.66666667 13.3333333,6.66666667 C13.7015232,6.66666667 14,6.9651435 14,7.33333333 L14,9.33333333 Z" id="形状" fill="#FFFFFF"/>
                <rect id="矩形" fill="#000000" opacity="0" x="0" y="0" width="16" height="16"/>
            </g>
        </g>
    </g>
</svg>