<svg xmlns="http://www.w3.org/2000/svg" xmlns:xlink="http://www.w3.org/1999/xlink" width="22px" height="22px" viewBox="0 0 22 22" version="1.1">
    <title>image-add</title>
    <g id="页面-1" stroke="none" stroke-width="1" fill="none" fill-rule="evenodd">
        <g id="反馈弹窗" transform="translate(-123.000000, -342.000000)">
            <g id="编组-8" transform="translate(70.000000, 255.000000)">
                <g id="编组-7" transform="translate(24.000000, 58.000000)">
                    <g id="image-add" transform="translate(29.333333, 29.333333)">
                        <path d="M20.4444444,16 C20.4444444,16.4909198 20.0464753,16.8888889 19.5555556,16.8888889 L16.8888889,16.8888889 L16.8888889,19.5555556 C16.8888889,20.0464753 16.4909198,20.4444444 16,20.4444444 C15.5090802,20.4444444 15.1111111,20.0464753 15.1111111,19.5555556 L15.1111111,16.8888889 L12.4444444,16.8888889 C11.9535247,16.8888889 11.5555556,16.4909198 11.5555556,16 C11.5555556,15.5090802 11.9535247,15.1111111 12.4444444,15.1111111 L15.1111111,15.1111111 L15.1111111,12.4444444 C15.1111111,11.9535247 15.5090802,11.5555556 16,11.5555556 C16.4909198,11.5555556 16.8888889,11.9535247 16.8888889,12.4444444 L16.8888889,15.1111111 L19.5555556,15.1111111 C20.0464753,15.1111111 20.4444444,15.5090802 20.4444444,16 Z M19.5555556,2.66666667 L1.77777778,2.66666667 C1.286858,2.66666667 0.888888889,3.06463578 0.888888889,3.55555556 L0.888888889,17.7777778 C0.888888889,18.2686976 1.286858,18.6666667 1.77777778,18.6666667 L9.80555556,18.6666667 C10.2964753,18.6666667 10.6944444,18.2686976 10.6944444,17.7777778 C10.6944444,17.286858 10.2964753,16.8888889 9.80555556,16.8888889 L2.66666667,16.8888889 L2.66666667,16.3680556 L7.11111111,11.9236111 L9.14916667,13.9619444 C9.3158715,14.1286873 9.54199462,14.2223657 9.77777778,14.2223657 C10.0135609,14.2223657 10.2396841,14.1286873 10.4063889,13.9619444 L14.2222222,10.1458333 L14.4825,10.4063889 C14.8296723,10.7535612 15.3925499,10.7535612 15.7397222,10.4063889 C16.0868946,10.0592166 16.0868946,9.496339 15.7397222,9.14916667 L14.8508333,8.26027778 C14.6841285,8.09353488 14.4580054,7.99985649 14.2222222,7.99985649 C13.9864391,7.99985649 13.7603159,8.09353488 13.5936111,8.26027778 L9.77777778,12.0763889 L7.73972222,10.0380556 C7.57301739,9.87131266 7.34689427,9.77763427 7.11111111,9.77763427 C6.87532796,9.77763427 6.64920483,9.87131266 6.4825,10.0380556 L2.66666667,13.8541667 L2.66666667,4.44444444 L18.6666667,4.44444444 L18.6666667,10.6666667 C18.6666667,11.1575864 19.0646358,11.5555556 19.5555556,11.5555556 C20.0464753,11.5555556 20.4444444,11.1575864 20.4444444,10.6666667 L20.4444444,3.55555556 C20.4444444,3.06463578 20.0464753,2.66666667 19.5555556,2.66666667 Z M7.11111111,6.86111111 C7.11111111,7.47476083 7.6085725,7.97222222 8.22222222,7.97222222 C8.83587194,7.97222222 9.33333333,7.47476083 9.33333333,6.86111111 C9.33333333,6.24746139 8.83587194,5.75 8.22222222,5.75 C7.6085725,5.75 7.11111111,6.24746139 7.11111111,6.86111111 L7.11111111,6.86111111 Z" id="形状" fill="#CCCCCC" fill-rule="nonzero"/>
                        <rect id="矩形" fill="#000000" opacity="0" x="0" y="0" width="21.3333333" height="21.3333333"/>
                    </g>
                </g>
            </g>
        </g>
    </g>
</svg>