<?xml version="1.0" encoding="UTF-8"?>
<svg width="22px" height="22px" viewBox="0 0 22 22" version="1.1" xmlns="http://www.w3.org/2000/svg" xmlns:xlink="http://www.w3.org/1999/xlink">
    <title>image-broken</title>
    <g id="页面-1" stroke="none" stroke-width="1" fill="none" fill-rule="evenodd">
        <g id="反馈弹窗" transform="translate(-387.000000, -726.000000)">
            <g id="编组-10备份" transform="translate(70.000000, 639.000000)">
                <g id="编组" transform="translate(288.000000, 58.000000)">
                    <g id="image-broken" transform="translate(29.333333, 29.333333)">
                        <path d="M19.5555556,19.5555556 L1.77777778,19.5555556 C1.286858,19.5555556 0.888888889,19.1575864 0.888888889,18.6666667 L0.888888889,3.55555556 C0.888888889,3.06463578 1.286858,2.66666667 1.77777778,2.66666667 L8.02777778,2.66666667 C8.51869756,2.66666667 8.91666667,3.06463578 8.91666667,3.55555556 C8.91666667,4.04647533 8.51869756,4.44444444 8.02777778,4.44444444 L2.66666667,4.44444444 L2.66666667,17.7777778 L18.6666667,17.7777778 L18.6666667,4.44444444 L12.105,4.44444444 L9.97055556,8.71333333 L13.0730556,11.8158333 C13.3436744,12.0863466 13.4108113,12.4996865 13.2397222,12.8419444 L11.4619444,16.3975 C11.3219987,16.685118 11.0383148,16.8753692 10.7191029,16.8956831 C10.399891,16.9159971 10.0943789,16.763241 9.91910289,16.4956831 C9.7438269,16.2281252 9.72581755,15.8870274 9.87194444,15.6025 L11.3630556,12.62 L8.26055556,9.5175 C7.98993674,9.24698675 7.92279977,8.8336468 8.09388889,8.49138889 L10.7605556,3.15805556 C10.9111123,2.85692013 11.2188808,2.66666667 11.5555556,2.66666667 L19.5555556,2.66666667 C20.0464753,2.66666667 20.4444444,3.06463578 20.4444444,3.55555556 L20.4444444,18.6666667 C20.4444444,19.1575864 20.0464753,19.5555556 19.5555556,19.5555556 Z" id="路径" fill="#CCCCCC"></path>
                        <rect id="矩形" fill="#000000" opacity="0" x="0" y="0" width="21.3333333" height="21.3333333"></rect>
                    </g>
                </g>
            </g>
        </g>
    </g>
</svg>